<?xml version="1.0" encoding="UTF-8"?>
<svg version="1.1" xmlns="http://www.w3.org/2000/svg" width="800" height="800">
<path d="M0 0 C1.33672014 -0.00452395 1.33672014 -0.00452395 2.70044473 -0.0091393 C3.67215628 -0.00736983 4.64386784 -0.00560036 5.64502519 -0.00377727 C7.20834357 -0.00685622 7.20834357 -0.00685622 8.80324414 -0.00999737 C12.31859808 -0.01568146 15.83391302 -0.01420837 19.34927076 -0.0127914 C21.88591121 -0.01537422 24.42255125 -0.01838715 26.95919073 -0.0217948 C33.21442977 -0.02902923 39.4696565 -0.0315679 45.72489924 -0.03212385 C53.21627693 -0.03303742 60.70764672 -0.03970478 68.19902102 -0.04647068 C86.30642351 -0.06253407 104.41382516 -0.0684344 122.52123349 -0.07321942 C131.0870606 -0.0755551 139.65288703 -0.07915772 148.21871361 -0.0829148 C177.53954033 -0.09575079 206.86036668 -0.10646979 236.18119615 -0.1099174 C238.02195795 -0.11013903 239.86271975 -0.11036082 241.70348155 -0.11058275 C243.54869564 -0.11080339 245.39390973 -0.11102388 247.23912382 -0.1112442 C250.94095482 -0.11168675 254.64278583 -0.11213387 258.34461683 -0.11258388 C259.26245639 -0.11269327 260.18029595 -0.11280266 261.12594883 -0.11291536 C290.88578207 -0.11654586 320.64559094 -0.13246537 350.40541485 -0.15577424 C381.86794286 -0.18037167 413.33045695 -0.19409021 444.79299486 -0.19528532 C448.2470149 -0.19545677 451.70103494 -0.1956722 455.15505499 -0.19591975 C456.43077366 -0.19600341 456.43077366 -0.19600341 457.73226444 -0.19608875 C471.41770438 -0.19723929 485.10311933 -0.20826162 498.78855084 -0.22280681 C512.54542488 -0.23717505 526.30226687 -0.24040695 540.05914635 -0.23236683 C548.23063463 -0.22791207 556.40201946 -0.23176503 564.57349414 -0.24760534 C570.67749741 -0.25851031 576.78138262 -0.25370948 582.88539033 -0.24283347 C585.35313798 -0.24087152 587.82089597 -0.24397777 590.28862906 -0.25267783 C593.64596385 -0.26376436 597.00277732 -0.25628505 600.36009783 -0.2442863 C601.31542122 -0.25188149 602.27074461 -0.25947669 603.25501719 -0.26730204 C614.24647033 -0.18265169 626.28920591 2.11394837 634.591443 9.80343175 C640.16126301 15.50096267 643.8110132 22.70571117 647.7555055 29.5651505 C649.4351304 32.45288752 651.1210504 35.33693576 652.80628675 38.2214005 C653.21251264 38.91930196 653.61873853 39.61720342 654.0372743 40.3362534 C657.04767235 45.49591845 660.19567617 50.55115252 663.4430055 55.5651505 C666.67274344 60.60910742 669.0063241 65.28514612 670.4430055 71.1276505 C670.61960706 71.84308019 670.79620863 72.55850987 670.97816175 73.29561925 C671.76004291 78.05918093 671.76539416 82.88889809 671.872693 87.70968175 C671.9036305 88.48956456 671.934568 89.26944737 671.966443 90.072963 C671.98626234 90.77953038 672.00608167 91.48609776 672.0265016 92.21407628 C672.56285153 94.67826782 673.50275262 95.55844778 675.4430055 97.1276505 C677.30302763 97.97387678 679.18042672 98.78231744 681.0680055 99.5651505 C688.4166409 103.12839451 692.13571418 108.3649551 696.4430055 115.1276505 C696.85999802 115.69374595 697.27699054 116.25984139 697.7066192 116.84309125 C701.49004012 122.22912375 702.21194336 126.49201017 702.26453871 132.98653722 C702.29096952 133.94080602 702.31740034 134.89507482 702.34463209 135.87826085 C702.42243318 139.02144371 702.46166642 142.1633742 702.49378675 145.307338 C702.51686431 146.93563731 702.51686431 146.93563731 702.54040807 148.59683156 C702.62112652 154.35860984 702.67238232 160.11977217 702.69910902 165.88204503 C702.72537247 170.59912258 702.80130746 175.31105322 702.92469496 180.02657628 C704.18726329 229.22051586 704.18726329 229.22051586 687.40574354 248.76381993 C684.33541272 252.46158382 681.92091048 256.52115236 679.4430055 260.6276505 C678.48792489 262.14012606 677.52995818 263.65078634 676.5680055 265.1589005 C672.80601115 271.11539156 669.1275208 277.12304672 665.4430055 283.1276505 C660.28609973 291.53124933 655.08585937 299.90317272 649.80360121 308.22848058 C646.20792204 313.90085411 642.65964006 319.6011613 639.1305055 325.3151505 C634.46402926 332.87006414 629.77648717 340.41133833 625.0680055 347.9401505 C624.44103773 348.94279943 623.81406996 349.94544835 623.16810316 350.97848058 C620.02094636 356.00998644 616.87147207 361.04003394 613.72034925 366.06905675 C606.49749326 377.60283231 599.33231061 389.16993971 592.21278089 400.76778722 C587.86867058 407.83564887 583.46869538 414.86453856 579.02039808 421.86715245 C574.76482568 428.5820723 570.60075264 435.3518273 566.4430055 442.1276505 C561.28609973 450.53124933 556.08585937 458.90317272 550.80360121 467.22848058 C547.20792204 472.90085411 543.65964006 478.6011613 540.1305055 484.3151505 C535.46402926 491.87006414 530.77648717 499.41133833 526.0680055 506.9401505 C525.44103773 507.94279943 524.81406996 508.94544835 524.16810316 509.97848058 C521.02094636 515.00998644 517.87147207 520.04003394 514.72034925 525.06905675 C507.49749326 536.60283231 500.33231061 548.16993971 493.21278089 559.76778722 C488.86867058 566.83564887 484.46869538 573.86453856 480.02039808 580.86715245 C475.76482568 587.5820723 471.60075264 594.3518273 467.4430055 601.1276505 C462.28609973 609.53124933 457.08585937 617.90317272 451.80360121 626.22848058 C448.20792104 631.90085569 444.65976547 637.60123754 441.1305055 643.3151505 C433.94343145 654.94573478 426.72681384 666.55734424 419.4430055 678.1276505 C418.90304945 678.98568273 418.36309339 679.84371495 417.80677503 680.72774816 C416.33849072 683.05318804 414.86160377 685.3728564 413.3805055 687.6901505 C412.96397718 688.34982823 412.54744886 689.00950597 412.11829847 689.68917394 C405.60995453 699.79692875 399.28204459 706.0187519 387.2555055 708.744838 C376.91311457 710.8599402 366.37301544 710.5766012 355.8636598 710.51876378 C352.38385122 710.50266598 348.90520105 710.51869115 345.42542738 710.53780675 C319.70704309 710.56158784 319.70704309 710.56158784 308.5055055 705.4401505 C302.40493354 702.82561966 297.35969328 704.22777144 291.3805055 706.5651505 C285.08597939 709.00645289 279.52024426 710.23497374 272.76746839 710.30465245 C271.67515409 710.31748769 270.58283979 710.33032292 269.45742506 710.34354711 C268.28864317 710.35093404 267.11986128 710.35832097 265.91566175 710.36593175 C264.69455198 710.3740035 263.47344221 710.38207524 262.21532911 710.39039159 C259.6306724 710.40420403 257.04599766 710.41493884 254.46131605 710.42281651 C251.84016724 710.43430214 249.21904118 710.45469908 246.5980348 710.48433995 C210.46409327 710.89259442 210.46409327 710.89259442 200.18128675 701.9089005 C192.47166341 694.0087022 187.14115953 684.85060062 181.57191175 675.39718175 C178.68101417 670.49849272 175.68326839 665.67674926 172.6305055 660.8776505 C171.62915748 659.30085676 170.62785646 657.72403316 169.62659925 656.14718175 C168.85485365 654.93215978 168.85485365 654.93215978 168.06751722 653.69259191 C158.99438087 639.36701774 150.08468115 624.93991355 141.21351331 610.48873448 C136.86918248 603.42045096 132.46894992 596.39116313 128.02039808 589.38814855 C123.76482568 582.6732287 119.60075264 575.9034737 115.4430055 569.1276505 C110.28609973 560.72405167 105.08585937 552.35212828 99.80360121 544.02682042 C96.20792204 538.35444689 92.65964006 532.6541397 89.1305055 526.9401505 C84.46402926 519.38523686 79.77648717 511.84396267 75.0680055 504.3151505 C74.12755384 502.81117711 74.12755384 502.81117711 73.16810316 501.27682042 C70.02094636 496.24531456 66.87147207 491.21526706 63.72034925 486.18624425 C56.49749326 474.65246869 49.33231061 463.08536129 42.21278089 451.48751378 C37.86867058 444.41965213 33.46869538 437.39076244 29.02039808 430.38814855 C24.76482568 423.6732287 20.60075264 416.9034737 16.4430055 410.1276505 C11.28609973 401.72405167 6.08585937 393.35212828 0.80360121 385.02682042 C-2.79207796 379.35444689 -6.34035994 373.6541397 -9.8694945 367.9401505 C-14.53597074 360.38523686 -19.22351283 352.84396267 -23.9319945 345.3151505 C-24.55896227 344.31250157 -25.18593004 343.30985265 -25.83189684 342.27682042 C-28.97905364 337.24531456 -32.12852793 332.21526706 -35.27965075 327.18624425 C-42.50250674 315.65246869 -49.66768939 304.08536129 -56.78721911 292.48751378 C-60.66808683 286.1733472 -64.58378311 279.88408239 -68.5569945 273.6276505 C-75.32351023 262.97252064 -82.0188435 252.25791445 -88.48677355 241.41825414 C-90.45650415 238.16058663 -90.45650415 238.16058663 -92.64406115 235.47132421 C-100.28147975 225.16382415 -99.76216036 214.76191741 -99.689807 202.32686925 C-99.70030005 200.11932388 -99.71286048 197.91178748 -99.72737414 195.70426488 C-99.7481009 191.09374135 -99.73918291 186.48445538 -99.70982653 181.87398839 C-99.67549556 176.00603401 -99.72241511 170.14200522 -99.79280573 164.27448869 C-99.83703223 159.71935828 -99.83380461 155.16514687 -99.81727511 150.60986829 C-99.81565044 148.44879218 -99.82909921 146.28764359 -99.85881716 144.12677121 C-100.03180723 129.27193257 -97.85277515 119.84861135 -88.5569945 108.1276505 C-87.67492831 106.94189679 -87.67492831 106.94189679 -86.77504259 105.73218846 C-81.88346391 99.43295683 -72.83617579 97.51326454 -65.5569945 95.1276505 C-65.51961169 93.96749425 -65.48222887 92.807338 -65.44371325 91.6120255 C-64.80203892 75.0104848 -61.13628921 63.30326914 -52.5569945 49.1276505 C-51.54677656 47.43844183 -50.53659341 45.74921222 -49.52705675 44.0595963 C-47.66865054 40.95329282 -45.8010401 37.85256068 -43.9319945 34.7526505 C-43.57095629 34.15291417 -43.20991808 33.55317784 -42.83793932 32.93526769 C-26.33876214 5.58602201 -26.33876214 5.58602201 -9.5569945 1.1276505 C-6.31438272 0.39685462 -3.32204233 0.00223684 0 0 Z M187.4430055 247.1276505 C188.71363409 251.31576235 190.28337578 254.85552635 192.54066175 258.60030675 C193.16851576 259.64976476 193.79636976 260.69922276 194.44324964 261.78048253 C195.12379408 262.90567296 195.80433851 264.03086339 196.5055055 265.1901505 C197.59169572 267.00095519 198.67571492 268.81304817 199.75964063 270.62520909 C200.51237568 271.88341213 201.26577278 273.1412193 202.01980299 274.39864659 C205.70610663 280.55002926 209.32725745 286.73873433 212.9424867 292.93206334 C218.54900649 302.53411172 224.20553754 312.10304228 229.9430055 321.6276505 C235.29281765 330.51065201 240.57975804 339.42856756 245.8180055 348.3776505 C246.17151075 348.981536 246.525016 349.5854215 246.88923353 350.20760655 C249.77054947 355.13094063 252.64846325 360.05626131 255.52625746 364.98165441 C258.03859879 369.28124194 260.55224721 373.5800613 263.0680055 377.8776505 C263.59501554 378.77798009 263.59501554 378.77798009 264.13267225 379.69649816 C269.77275996 389.32671615 275.48332498 398.91296377 281.2452516 408.47091222 C284.02381892 413.08229569 286.78844153 417.69941474 289.49378675 422.354213 C290.18516737 423.54288976 290.18516737 423.54288976 290.89051527 424.75558019 C291.72724331 426.19911249 292.56010105 427.64489898 293.38807386 429.09347081 C295.81423682 433.64786692 295.81423682 433.64786692 299.4430055 437.1276505 C302.32670229 436.88193871 303.9273447 436.66637706 305.96033949 434.54244542 C306.38645521 433.84224278 306.81257093 433.14204015 307.25159925 432.42061925 C307.75675062 431.60383702 308.26190199 430.7870548 308.78236097 429.94552159 C309.33037367 429.01562413 309.87838636 428.08572667 310.4430055 427.1276505 C311.05676039 426.10365148 311.67051527 425.07965245 312.30286878 424.02462316 C314.39162771 420.50846867 316.45120303 416.9764789 318.5055055 413.4401505 C319.64511071 411.48580156 320.78572756 409.53204528 321.92637342 407.57830358 C322.68867465 406.27243854 323.4506591 404.96638852 324.21232313 403.66015172 C327.43392061 398.13626987 330.68319555 392.62906683 333.9430055 387.1276505 C337.47626387 381.16113668 340.99727719 375.18771607 344.497693 369.20186925 C344.84898268 368.60121648 345.20027235 368.00056371 345.56220716 367.38170934 C345.91732374 366.77451055 346.27244032 366.16731175 346.638318 365.541713 C352.68492772 355.2032599 358.76279165 344.88710199 364.9430055 334.6276505 C372.4842797 322.10589306 379.87539211 309.49850763 387.25062269 296.87862706 C390.97774143 290.50114989 394.70932968 284.12629075 398.4430055 277.7526505 C398.80069013 277.14196721 399.15837476 276.53128392 399.52689832 275.90209508 C404.77572012 266.94304178 410.06021539 258.00695385 415.4430055 249.1276505 C413.8231714 246.05394254 413.8231714 246.05394254 411.55970514 245.44819015 C407.97524868 244.90538266 404.37401749 244.98718413 400.75747389 244.99393773 C399.87145315 244.99167217 398.98543242 244.98940662 398.07256258 244.98707241 C395.09780446 244.98073229 392.1230919 244.98156178 389.14832777 244.98238683 C387.0179459 244.97939537 384.88756458 244.97599288 382.75718397 244.97220922 C376.9659446 244.96336432 371.17472 244.96103091 365.38347453 244.96039343 C360.5522654 244.95944469 355.72105973 244.95576686 350.88985193 244.95222133 C339.49440069 244.94407515 328.09895736 244.94163727 316.70350355 244.94234776 C304.93944937 244.94294883 293.175441 244.93239164 281.41139841 244.9166041 C271.31790271 244.90354002 261.224422 244.89816338 251.13091791 244.89880317 C245.09956556 244.89905847 239.06825394 244.89619006 233.03691 244.88562512 C227.36607553 244.87596302 221.69532086 244.87585199 216.02448362 244.88314176 C213.94154266 244.8841899 211.85859677 244.88181114 209.77566427 244.8757813 C206.93552182 244.86809099 204.09565702 244.87268654 201.25552076 244.88041234 C200.42847767 244.87526878 199.60143457 244.87012521 198.74932957 244.86482579 C194.52405547 244.89027974 191.30051679 245.17922609 187.4430055 247.1276505 Z " fill="#000000" transform="translate(98.55699449777603,64.87234950065613)"/>
<path d="M0 0 C2.39658282 0.05455234 4.79311696 0.11127765 7.18960261 0.16994375 C9.7602843 0.14843643 12.33089811 0.11687927 14.90134764 0.07618368 C20.47654464 0.00416389 26.04645016 0.01685213 31.62160563 0.08640569 C39.91076084 0.18953271 48.19584596 0.16023571 56.48527214 0.10527886 C71.2901268 0.01141245 86.09249258 0.0476533 100.89723841 0.1383846 C113.85033409 0.21723565 126.80257726 0.25024814 139.75590968 0.2382707 C141.04575082 0.23715922 141.04575082 0.23715922 142.36164936 0.23602529 C145.85238007 0.2329368 149.34311043 0.22961189 152.83384058 0.22594673 C185.56163346 0.19209292 218.28792119 0.28656607 251.01529985 0.44282646 C280.08640512 0.58094916 309.15599663 0.62072903 338.22738338 0.57300466 C345.67414623 0.56089251 353.12090909 0.54884629 360.56767344 0.53768152 C361.9428908 0.53561107 361.9428908 0.53561107 363.34589032 0.5334988 C387.64726736 0.4983181 411.94850641 0.53852054 436.24980688 0.60263002 C438.86458789 0.60946074 441.47936895 0.61627535 444.09415008 0.62305982 C445.82867843 0.62757586 447.56320664 0.63215024 449.29773468 0.63678338 C461.38710048 0.66845019 473.47615638 0.6706458 485.56554458 0.65261095 C501.14288444 0.62942826 516.71864561 0.65808875 532.29558638 0.77863807 C540.53278085 0.84085656 548.767305 0.85947008 557.00462935 0.81484922 C563.15432631 0.78653577 569.3005955 0.84185374 575.44966659 0.92997389 C577.9378706 0.95273102 580.42649632 0.94848996 582.91457525 0.91472078 C601.0650459 0.69021799 601.0650459 0.69021799 605.92126352 4.63799797 C609.19277474 8.42609224 611.32577699 12.5896272 613.19644228 17.2062242 C614.14894567 19.49868122 615.38203969 21.54134925 616.7281158 23.62280935 C617.43616483 24.82049235 618.14237578 26.01926437 618.846524 27.2192449 C619.4329845 28.2115637 619.4329845 28.2115637 620.03129268 29.22392935 C621.23853941 31.26682168 622.44326615 33.31117943 623.64730525 35.35596365 C624.85847769 37.41235499 626.07032553 39.46833016 627.2845428 41.52292532 C628.06648583 42.84626764 628.84654345 44.17072611 629.62456965 45.49637502 C632.52638104 50.4098644 635.65626315 55.1371397 638.95126033 59.79810232 C639.95980525 62.04346365 639.95980525 62.04346365 639.30379939 64.23145193 C637.28047803 66.95935223 634.53834917 68.20296016 631.58480525 69.73096365 C623.70494094 73.9864785 616.03902843 78.56557602 608.39730525 83.23096365 C607.17287445 83.97732748 605.94842775 84.72366523 604.72396541 85.46997732 C602.28732356 86.95594404 599.85152657 88.44328348 597.41634822 89.93164724 C592.43511634 92.97595362 587.44710625 96.00911443 582.45980525 99.04346365 C580.59522029 100.17887764 578.73063698 101.31429435 576.86605525 102.44971365 C569.63409612 106.85177572 562.39613232 111.24394174 555.15853572 115.63672537 C547.25560732 120.43347424 539.35557139 125.23493096 531.45980525 130.04346365 C522.36428871 135.58264601 513.26237792 141.11124348 504.15853572 146.63672537 C495.33037944 151.99504909 486.5063344 157.36007439 477.68685603 162.73267263 C472.4765943 165.90576815 467.26304183 169.0733597 462.04574275 172.2348699 C460.83544849 172.96858099 459.62516206 173.70230499 458.41488338 174.43604177 C456.14077965 175.81470377 453.8659658 177.19216693 451.59066463 178.56885427 C450.51365291 179.22176443 449.43664119 179.87467458 448.32699275 180.5473699 C447.23745296 181.19234237 446.14791316 181.83731485 445.02535701 182.50183195 C442.0819375 184.28860014 439.31059084 186.22581283 436.53841853 188.26714796 C422.57811034 198.21479192 411.44941106 199.93068189 394.59261775 199.72559255 C392.12111786 199.74325583 389.64965227 199.76642918 387.17825007 199.79462332 C381.21569352 199.84730429 375.2551014 199.84021631 369.29260373 199.80225898 C364.4385134 199.77266142 359.58501746 199.76901906 354.73086238 199.7830686 C354.03482909 199.78506063 353.33879581 199.78705266 352.6216706 199.78910505 C351.20682501 199.7932623 349.79197958 199.79747709 348.37713432 199.80174874 C335.17077961 199.83864592 321.96560602 199.79647281 308.75944519 199.72634397 C297.47603215 199.66827627 286.19435882 199.67836959 274.91097713 199.73828787 C261.74568038 199.80816895 248.58141361 199.83507705 235.41595721 199.79532844 C234.00688767 199.79118816 232.59781797 199.78710132 231.18874812 199.7830686 C230.14934665 199.78006022 230.14934665 199.78006022 229.08894718 199.77699108 C224.25171918 199.76585852 219.41515536 199.7845096 214.57803035 199.81530279 C208.0433875 199.85599591 201.51122937 199.82622241 194.97687221 199.75167745 C192.59591985 199.7346613 190.21468853 199.73912548 187.83385158 199.7680921 C171.13849143 199.95230632 160.57808453 196.5165107 147.10079455 186.58987588 C144.09282219 184.41725164 140.96108474 182.54207003 137.768399 180.65283865 C136.71716853 180.01539724 135.66593806 179.37795583 134.58285213 178.72119802 C133.53162166 178.08504568 132.48039119 177.44889333 131.39730525 176.79346365 C130.21690327 176.07807352 129.03656677 175.36257533 127.85628963 174.64697927 C125.42863944 173.17521711 123.00072174 171.70389786 120.57259822 170.23291677 C115.28037907 167.02633195 109.99167069 163.81396585 104.70275569 160.60193533 C101.78858839 158.83219851 98.87418465 157.06285114 95.95980525 155.29346365 C94.79313746 154.58513217 93.62647079 153.87679884 92.45980525 153.16846365 C91.88230525 152.81783865 91.30480525 152.46721365 90.70980525 152.10596365 C70.29313858 139.71013031 49.87647192 127.31429698 29.45980525 114.91846365 C28.88237071 114.56787893 28.30493617 114.21729421 27.71000361 113.85608572 C26.5426738 113.14734867 25.37534592 112.43860843 24.20801997 111.72986501 C21.30151529 109.96518246 18.39497761 108.20055431 15.4883697 106.43604177 C10.11710905 103.17523763 4.74615225 99.91393661 -0.62366033 96.65074819 C-3.69985052 94.78139883 -6.77625824 92.91240761 -9.85269475 91.04346365 C-10.44715398 90.68227438 -11.04161321 90.32108511 -11.65408635 89.94895071 C-18.18692527 85.98017576 -24.7261873 82.02302029 -31.29019475 78.10596365 C-38.94349019 73.53013636 -46.49411871 68.79322767 -54.04019475 64.04346365 C-50.23749821 55.99706262 -45.75884015 48.42713115 -41.10269475 40.85596365 C-40.07437539 39.17370824 -39.04615286 37.49138863 -38.02218349 35.80648189 C-37.31673623 34.65897224 -36.59981948 33.51842228 -35.87075309 32.38577208 C-33.38881024 28.47794067 -31.31198404 24.54124587 -29.38517237 20.33007848 C-22.27110755 5.65312167 -16.48991576 0.13412034 0 0 Z " fill="#FE5360" transform="translate(109.04019474983215,66.95653635263443)"/>
<path d="M0 0 C1.50537109 2.08520508 1.50537109 2.08520508 3.2734375 5.01953125 C3.92779785 6.09589844 4.5821582 7.17226562 5.25634766 8.28125 C5.96259509 9.45831534 6.66881188 10.63539907 7.375 11.8125 C8.4609821 13.60465577 9.54958999 15.39519795 10.63839722 17.18563843 C11.37107654 18.39073505 12.10294497 19.59632504 12.83401489 20.80239868 C16.03362739 26.0762787 19.31471742 31.29515317 22.625 36.5 C23.57973771 38.01152259 24.53418126 39.52323104 25.48828125 41.03515625 C27.01308518 43.44890545 28.55173198 45.85062945 30.10546875 48.24609375 C30.66878906 49.13425781 31.23210937 50.02242187 31.8125 50.9375 C32.50279297 52.00291016 32.50279297 52.00291016 33.20703125 53.08984375 C34.23618644 55.56894172 33.84345077 56.47049908 33 59 C32.11504006 60.60638138 31.16841917 62.17939278 30.18359375 63.7265625 C29.59231689 64.66282471 29.00104004 65.59908691 28.3918457 66.5637207 C27.74691162 67.57394287 27.10197754 68.58416504 26.4375 69.625 C25.06418931 71.79759907 23.69182575 73.97079705 22.3203125 76.14453125 C21.78797752 76.9864225 21.78797752 76.9864225 21.24488831 77.84532166 C17.37822581 83.96670704 13.59539493 90.13908592 9.8125 96.3125 C4.79201941 104.49264376 -0.27628617 112.6380424 -5.42260742 120.73950195 C-9.67817983 127.4544218 -13.84225286 134.2241768 -18 141 C-23.15690577 149.40359883 -28.35714613 157.77552222 -33.6394043 166.10083008 C-37.23508346 171.77320361 -40.78336544 177.4735108 -44.3125 183.1875 C-48.97897624 190.74241364 -53.66651833 198.28368783 -58.375 205.8125 C-59.31545166 207.31647339 -59.31545166 207.31647339 -60.27490234 208.85083008 C-63.42205914 213.88233594 -66.57153343 218.91238344 -69.72265625 223.94140625 C-76.94551224 235.47518181 -84.11069489 247.04228921 -91.23022461 258.64013672 C-95.57433493 265.70799837 -99.97431012 272.73688806 -104.42260742 279.73950195 C-108.67817983 286.4544218 -112.84225286 293.2241768 -117 300 C-122.15690577 308.40359883 -127.35714613 316.77552222 -132.6394043 325.10083008 C-136.23508346 330.77320361 -139.78336544 336.4735108 -143.3125 342.1875 C-147.97897624 349.74241364 -152.66651833 357.28368783 -157.375 364.8125 C-158.00196777 365.81514893 -158.62893555 366.81779785 -159.27490234 367.85083008 C-162.42205914 372.88233594 -165.57153343 377.91238344 -168.72265625 382.94140625 C-175.94551224 394.47518181 -183.11069489 406.04228921 -190.23022461 417.64013672 C-194.57433493 424.70799837 -198.97431012 431.73688806 -203.42260742 438.73950195 C-207.67817983 445.4544218 -211.84225286 452.2241768 -216 459 C-221.15690577 467.40359883 -226.35714613 475.77552222 -231.6394043 484.10083008 C-235.23508346 489.77320361 -238.78336544 495.4735108 -242.3125 501.1875 C-246.97897644 508.74241396 -251.66656981 516.28365537 -256.375 523.8125 C-257.3023999 525.29580811 -257.3023999 525.29580811 -258.24853516 526.80908203 C-261.54382523 532.07796709 -264.84278527 537.34453328 -268.14453125 542.609375 C-269.15990967 544.23008911 -269.15990967 544.23008911 -270.19580078 545.88354492 C-271.48857385 547.94694259 -272.78245433 550.009647 -274.07763672 552.0715332 C-274.66432129 553.00827881 -275.25100586 553.94502441 -275.85546875 554.91015625 C-276.36746826 555.72621338 -276.87946777 556.54227051 -277.40698242 557.38305664 C-279.33521757 560.55068155 -281.16013791 563.78024134 -283 567 C-304.12 567 -325.24 567 -347 567 C-347.19872871 538.46425564 -347.36478119 509.9290528 -347.45958797 481.39278686 C-347.47084317 478.01730916 -347.48249219 474.64183293 -347.49438477 471.26635742 C-347.49792596 470.258441 -347.49792596 470.258441 -347.50153869 469.23016263 C-347.54060966 458.37630208 -347.61151944 447.52287429 -347.69437516 436.66926973 C-347.77879415 425.51716362 -347.82790969 414.3652045 -347.84679645 403.21277529 C-347.85849768 396.95482888 -347.88586505 390.69786116 -347.95157051 384.44022942 C-348.0130074 378.54090507 -348.0314345 372.64295534 -348.01796913 366.74334145 C-348.02042971 364.58712651 -348.03812608 362.43086197 -348.07284927 360.27492523 C-348.28890031 346.1589939 -346.45001294 337.36876014 -338 326 C-336.88834949 324.17927399 -335.79458855 322.34724402 -334.734375 320.49609375 C-334.24420898 319.66585693 -333.75404297 318.83562012 -333.24902344 317.98022461 C-332.50700684 316.72157593 -332.50700684 316.72157593 -331.75 315.4375 C-330.62503213 313.53123104 -329.50003121 311.62498158 -328.375 309.71875 C-327.81296875 308.76613281 -327.2509375 307.81351562 -326.671875 306.83203125 C-325.07470364 304.12654238 -323.47534475 301.42236272 -321.875 298.71875 C-317.21084717 290.83728358 -312.55296132 282.95241299 -307.9296875 275.046875 C-301.17464638 263.49752967 -294.40413953 251.96120284 -287.5 240.5 C-282.15018198 231.61700201 -276.86324743 222.69908289 -271.625 213.75 C-271.27149475 213.1461145 -270.9179895 212.542229 -270.55377197 211.92004395 C-268.03398192 207.61445287 -265.51671023 203.30739182 -263 199 C-242.18404489 163.37314332 -242.18404489 163.37314332 -232.58984375 147.67797852 C-231.5396456 145.90899457 -230.53545594 144.11178345 -229.58203125 142.28881836 C-225.96117334 135.5506281 -222.07640761 132.47760327 -215.375 128.9375 C-213.40091607 127.83327765 -211.42833192 126.72637099 -209.45703125 125.6171875 C-208.41111816 125.03678711 -207.36520508 124.45638672 -206.28759766 123.85839844 C-201.06831979 120.90806848 -195.95849839 117.78149797 -190.84512329 114.652771 C-188.45891572 113.19334156 -186.06895193 111.74011886 -183.67918396 110.28652954 C-181.91294405 109.21195077 -180.14729136 108.13641393 -178.38183594 107.06054688 C-175.22665382 105.13809978 -172.07057029 103.21714445 -168.9140625 101.296875 C-163.27512282 97.86609154 -157.63741724 94.4332844 -152 91 C-139.07221445 83.12675547 -126.13978661 75.26123606 -113.20010376 67.40756226 C-105.29671693 62.6105398 -97.3962221 57.80881037 -89.5 53 C-80.4055172 47.46144719 -71.30496492 41.93293908 -62.20175171 36.40875244 C-55.17014622 32.1416965 -48.1418578 27.86930456 -41.11987305 23.58642578 C-36.41639485 20.71909974 -31.70838087 17.85926568 -27 15 C-25.88206055 14.32001953 -24.76412109 13.64003906 -23.61230469 12.93945312 C-20.14084752 10.82886168 -16.66435707 8.72668412 -13.1875 6.625 C-11.55711792 5.63282471 -11.55711792 5.63282471 -9.89379883 4.62060547 C-8.8911499 4.01619629 -7.88850098 3.41178711 -6.85546875 2.7890625 C-5.96496826 2.24975098 -5.07446777 1.71043945 -4.15698242 1.15478516 C-2 0 -2 0 0 0 Z " fill="#607591" transform="translate(766,163)"/>
<path d="M0 0 C4.42177886 1.59251806 8.35572731 3.84966048 12.375 6.25 C13.11194092 6.68691162 13.84888184 7.12382324 14.6081543 7.57397461 C23.71364722 12.99026214 32.74928265 18.52250604 41.79150391 24.04345703 C46.92670386 27.17490524 52.06900609 30.29463816 57.21118164 33.41461182 C66.41539038 38.99938198 75.61661094 44.58903831 84.8125 50.1875 C85.73973877 50.75194824 86.66697754 51.31639648 87.62231445 51.89794922 C92.36121683 54.78314715 97.09910763 57.6699945 101.8359375 60.55859375 C110.97729633 66.13110763 120.12675463 71.68839825 129.3125 77.1875 C141.17406999 84.29021558 152.97081418 91.49446754 164.71655273 98.78710938 C172.40366562 103.55934586 180.10979757 108.29324017 187.875 112.9375 C191.25007371 114.95821026 194.62510676 116.97898835 198 119 C198.99515625 119.59554687 199.9903125 120.19109375 201.015625 120.8046875 C204.1386608 122.67695523 207.2572151 124.55650396 210.375 126.4375 C211.34421387 127.01685303 212.31342773 127.59620605 213.31201172 128.19311523 C220.94384473 132.80969579 226.75873824 136.62084702 230.9375 144.75 C231.70974647 146.18434148 232.48608182 147.61648606 233.265625 149.046875 C233.69423828 149.83384766 234.12285156 150.62082031 234.56445312 151.43164062 C237.31839406 156.35875945 240.26586927 161.17112635 243.1875 166 C248.82759696 175.34970044 254.37975423 184.74534148 259.86767578 194.18505859 C263.7412182 200.846502 267.63895855 207.49288073 271.5625 214.125 C272.09794434 215.03008301 272.63338867 215.93516602 273.18505859 216.86767578 C274.78957666 219.57872458 276.39472242 222.28940087 278 225 C280.08420207 228.52031998 282.16754732 232.04114488 284.25 235.5625 C285.04120239 236.90018433 285.04120239 236.90018433 285.84838867 238.26489258 C288.93422332 243.48739159 292.00802548 248.71678658 295.0703125 253.953125 C302.41845428 266.51651662 309.80721877 279.05025839 317.31787109 291.51757812 C333.00966394 317.6080491 333.00966394 317.6080491 338.82735348 328.0710535 C340.01104622 330.100107 340.01104622 330.100107 341.7100687 332.20524502 C348.77807962 342.19038423 347.94230561 352.22188794 347.79467773 364.01660156 C347.79270067 366.23509152 347.79381652 368.45358606 347.79777527 370.67207336 C347.79977574 376.6653795 347.75875037 382.65769599 347.70975757 388.65077305 C347.66586518 394.9247435 347.66187593 401.19873906 347.65357971 407.47283936 C347.6343263 417.99393587 347.59066537 428.51472808 347.52807617 439.03564453 C347.46370952 449.86668102 347.41421647 460.69761916 347.38452148 471.52880859 C347.38268242 472.19772992 347.38084336 472.86665124 347.37894856 473.55584291 C347.36981254 476.91201071 347.36096676 480.26817921 347.35226524 483.62434816 C347.27918577 511.41648326 347.15613713 539.20821615 347 567 C338.89919133 567.53683246 330.8059549 567.94327276 322.691679 568.19167995 C318.92130693 568.31103995 315.16319922 568.47207022 311.39990234 568.73510742 C287.18905277 570.38344566 287.18905277 570.38344566 280.30136108 564.82034302 C275.76737545 559.40925196 272.90874594 553.39422685 270.26121521 546.89370728 C268.3334253 542.47062417 265.73429887 538.5637624 263.0625 534.5625 C262.07607949 533.01514981 261.09263762 531.4658934 260.11328125 529.9140625 C259.61135254 529.12290039 259.10942383 528.33173828 258.59228516 527.51660156 C249.53600176 513.20317482 240.63160949 498.79586523 231.77050781 484.36108398 C227.42617697 477.29280047 223.02594441 470.26351263 218.57739258 463.26049805 C214.32182017 456.5455782 210.15774714 449.7758232 206 443 C200.84309423 434.59640117 195.64285387 426.22447778 190.3605957 417.89916992 C186.76491654 412.22679639 183.21663456 406.5264892 179.6875 400.8125 C175.02102376 393.25758636 170.33348167 385.71631217 165.625 378.1875 C164.68454834 376.68352661 164.68454834 376.68352661 163.72509766 375.14916992 C160.57794086 370.11766406 157.42846657 365.08761656 154.27734375 360.05859375 C147.05448776 348.52481819 139.88930511 336.95771079 132.76977539 325.35986328 C128.42566507 318.29200163 124.02568988 311.26311194 119.57739258 304.26049805 C115.32182017 297.5455782 111.15774714 290.7758232 107 284 C101.84309423 275.59640117 96.64285387 267.22447778 91.3605957 258.89916992 C87.76491654 253.22679639 84.21663456 247.5264892 80.6875 241.8125 C76.02102376 234.25758636 71.33348167 226.71631217 66.625 219.1875 C65.99803223 218.18485107 65.37106445 217.18220215 64.72509766 216.14916992 C61.57794086 211.11766406 58.42846657 206.08761656 55.27734375 201.05859375 C48.05448776 189.52481819 40.88930511 177.95771079 33.76977539 166.35986328 C29.42566507 159.29200163 25.02568988 152.26311194 20.57739258 145.26049805 C16.32182017 138.5455782 12.15774714 131.7758232 8 125 C2.84757134 116.60369699 -2.34655665 108.23797974 -7.6262207 99.92114258 C-11.91664767 93.15549733 -16.13533281 86.34651683 -20.32543945 79.51831055 C-22.77093424 75.54470795 -25.23903034 71.60195283 -27.85546875 67.73828125 C-28.28448486 67.09930908 -28.71350098 66.46033691 -29.15551758 65.80200195 C-30.28671303 64.13045968 -31.4356047 62.47093033 -32.5859375 60.8125 C-34.27550073 57.45204275 -34.02335254 56.53028502 -33 53 C-31.82348633 50.77783203 -31.82348633 50.77783203 -30.33203125 48.5078125 C-29.77507568 47.64881348 -29.21812012 46.78981445 -28.64428711 45.90478516 C-27.73755249 44.5287915 -27.73755249 44.5287915 -26.8125 43.125 C-25.53702951 41.15756648 -24.26365882 39.18877038 -22.9921875 37.21875 C-22.33444336 36.20039063 -21.67669922 35.18203125 -20.99902344 34.1328125 C-17.13265487 28.07354999 -13.4280858 21.91594448 -9.70825195 15.76611328 C-6.51298473 10.48401547 -3.28619489 5.2260902 0 0 Z " fill="#4A586C" transform="translate(34,163)"/>
</svg>
